{
  "accessors": [
    {
      "bufferView": 2,
      "componentType": 5126,
      "count": 2168,
      "max": [
        0.09544160962104797,
        0.7566635608673096,
        0.10668334364891052
      ],
      "min": [
        -0.09544249624013901,
        0.44184237718582153,
        -0.12177662551403046
      ],
      "type": "VEC3"
    },
    {
      "bufferView": 2,
      "byteOffset": 26016,
      "componentType": 5126,
      "count": 2168,
      "max": [
        0.9998071789741516,
        0.9970510601997375,
        0.9997466206550598
      ],
      "min": [
        -0.9998078346252441,
        -0.9999243021011353,
        -0.9818640351295471
      ],
      "type": "VEC3"
    },
    {
      "bufferView": 1,
      "componentType": 5126,
      "count": 2168,
      "max": [
        0.9943000078201294,
        0.9956499934196472
      ],
      "min": [
        0.004999999888241291,
        0.019299983978271484
      ],
      "type": "VEC2"
    },
    {
      "bufferView": 1,
      "byteOffset": 17344,
      "componentType": 5126,
      "count": 2168,
      "max": [
        0.0,
        0.0
      ],
      "min": [
        0.0,
        0.0
      ],
      "type": "VEC2"
    },
    {
      "bufferView": 0,
      "componentType": 5125,
      "count": 12282,
      "type": "SCALAR"
    },
    {
      "bufferView": 2,
      "byteOffset": 52032,
      "componentType": 5126,
      "count": 173,
      "max": [
        0.049256131052970886,
        0.6669963002204895,
        0.07362064719200134
      ],
      "min": [
        0.014698147773742676,
        0.6325220465660095,
        0.0552426353096962
      ],
      "type": "VEC3"
    },
    {
      "bufferView": 2,
      "byteOffset": 54108,
      "componentType": 5126,
      "count": 173,
      "max": [
        0.9745136499404907,
        0.9792490601539612,
        1.0
      ],
      "min": [
        -0.9743961691856384,
        -0.9773334860801697,
        0.19799061119556427
      ],
      "type": "VEC3"
    },
    {
      "bufferView": 1,
      "byteOffset": 34688,
      "componentType": 5126,
      "count": 173,
      "max": [
        0.9646214246749878,
        0.9790093898773193
      ],
      "min": [
        0.019903719425201416,
        0.018193840980529785
      ],
      "type": "VEC2"
    },
    {
      "bufferView": 1,
      "byteOffset": 36072,
      "componentType": 5126,
      "count": 173,
      "max": [
        0.9935725927352905,
        0.9791767597198486
      ],
      "min": [
        0.04407842457294464,
        0.03880423307418823
      ],
      "type": "VEC2"
    },
    {
      "bufferView": 0,
      "byteOffset": 49128,
      "componentType": 5125,
      "count": 570,
      "type": "SCALAR"
    },
    {
      "bufferView": 2,
      "byteOffset": 56184,
      "componentType": 5126,
      "count": 173,
      "max": [
        -0.015511099249124527,
        0.6666774153709412,
        0.07271870970726013
      ],
      "min": [
        -0.05006908252835274,
        0.6322031617164612,
        0.05434069782495499
      ],
      "type": "VEC3"
    },
    {
      "bufferView": 2,
      "byteOffset": 58260,
      "componentType": 5126,
      "count": 173,
      "max": [
        0.9745135307312012,
        0.979249119758606,
        1.0
      ],
      "min": [
        -0.9743961691856384,
        -0.9773350954055786,
        0.19798505306243896
      ],
      "type": "VEC3"
    },
    {
      "bufferView": 1,
      "byteOffset": 37456,
      "componentType": 5126,
      "count": 173,
      "max": [
        0.9646214246749878,
        0.9790093898773193
      ],
      "min": [
        0.019903719425201416,
        0.018193840980529785
      ],
      "type": "VEC2"
    },
    {
      "bufferView": 1,
      "byteOffset": 38840,
      "componentType": 5126,
      "count": 173,
      "max": [
        0.9935725927352905,
        0.9791767597198486
      ],
      "min": [
        0.04407842457294464,
        0.03880423307418823
      ],
      "type": "VEC2"
    },
    {
      "bufferView": 0,
      "byteOffset": 51408,
      "componentType": 5125,
      "count": 570,
      "type": "SCALAR"
    },
    {
      "bufferView": 2,
      "byteOffset": 60336,
      "componentType": 5126,
      "count": 328,
      "max": [
        0.08864123374223709,
        0.7730362415313721,
        0.09407185763120651
      ],
      "min": [
        -0.08871982991695404,
        0.5830173492431641,
        -0.11555931717157364
      ],
      "type": "VEC3"
    },
    {
      "bufferView": 2,
      "byteOffset": 64272,
      "componentType": 5126,
      "count": 328,
      "max": [
        0.995438277721405,
        0.9973397254943848,
        0.9757832884788513
      ],
      "min": [
        -0.9992591142654419,
        -0.968562126159668,
        -0.9953469038009644
      ],
      "type": "VEC3"
    },
    {
      "bufferView": 3,
      "componentType": 5126,
      "count": 328,
      "max": [
        0.9976428747177124,
        0.9910156726837158,
        0.9743517637252808,
        1.0
      ],
      "min": [
        -0.9892765283584595,
        -0.9946620464324951,
        -0.9955360889434814,
        -1.0
      ],
      "type": "VEC4"
    },
    {
      "bufferView": 1,
      "byteOffset": 40224,
      "componentType": 5126,
      "count": 328,
      "max": [
        0.9728400111198425,
        0.9998999834060669
      ],
      "min": [
        9.000000136438757e-05,
        9.000301361083984e-05
      ],
      "type": "VEC2"
    },
    {
      "bufferView": 0,
      "byteOffset": 53688,
      "componentType": 5125,
      "count": 1866,
      "type": "SCALAR"
    },
    {
      "bufferView": 2,
      "byteOffset": 68208,
      "componentType": 5126,
      "count": 509,
      "max": [
        0.11545176804065704,
        0.5644998550415039,
        0.048423007130622864
      ],
      "min": [
        -0.11578021198511124,
        0.39392372965812683,
        -0.13505002856254578
      ],
      "type": "VEC3"
    },
    {
      "bufferView": 2,
      "byteOffset": 74316,
      "componentType": 5126,
      "count": 509,
      "max": [
        0.9938960075378418,
        0.999042272567749,
        0.9989876747131348
      ],
      "min": [
        -0.9985051155090332,
        -0.9835561513900757,
        -0.9128157496452332
      ],
      "type": "VEC3"
    },
    {
      "bufferView": 3,
      "byteOffset": 5248,
      "componentType": 5126,
      "count": 509,
      "max": [
        0.9999933838844299,
        0.9921877980232239,
        0.999413013458252,
        1.0
      ],
      "min": [
        -0.9999984502792358,
        -0.9790509939193726,
        -0.9994204640388489,
        1.0
      ],
      "type": "VEC4"
    },
    {
      "bufferView": 1,
      "byteOffset": 42848,
      "componentType": 5126,
      "count": 509,
      "max": [
        0.9181128740310669,
        0.9838082194328308
      ],
      "min": [
        0.014290831983089447,
        0.020840585231781006
      ],
      "type": "VEC2"
    },
    {
      "bufferView": 1,
      "byteOffset": 46920,
      "componentType": 5126,
      "count": 509,
      "max": [
        0.9181128740310669,
        0.9838082194328308
      ],
      "min": [
        0.014290831983089447,
        0.020840585231781006
      ],
      "type": "VEC2"
    },
    {
      "bufferView": 0,
      "byteOffset": 61152,
      "componentType": 5125,
      "count": 1701,
      "type": "SCALAR"
    },
    {
      "bufferView": 2,
      "byteOffset": 80424,
      "componentType": 5126,
      "count": 36,
      "max": [
        0.02372504025697708,
        0.5917990207672119,
        0.08799631893634796
      ],
      "min": [
        -0.02361827716231346,
        0.5777572393417358,
        0.050454601645469666
      ],
      "type": "VEC3"
    },
    {
      "bufferView": 2,
      "byteOffset": 80856,
      "componentType": 5126,
      "count": 36,
      "max": [
        0.9914496541023254,
        -0.018092762678861618,
        0.9936381578445435
      ],
      "min": [
        -0.991449773311615,
        -0.3530976474285126,
        0.08285848051309586
      ],
      "type": "VEC3"
    },
    {
      "bufferView": 1,
      "byteOffset": 50992,
      "componentType": 5126,
      "count": 36,
      "max": [
        0.9929437637329102,
        0.05837339162826538
      ],
      "min": [
        0.9133061766624451,
        0.00952214002609253
      ],
      "type": "VEC2"
    },
    {
      "bufferView": 0,
      "byteOffset": 67956,
      "componentType": 5125,
      "count": 120,
      "type": "SCALAR"
    }
  ],
  "asset": {
    "extras": {
      "author": "1933617028 (https://sketchfab.com/1933617028)",
      "license": "CC-BY-4.0 (http://creativecommons.org/licenses/by/4.0/)",
      "source": "https://sketchfab.com/3d-models/people-2e8aff9b12984219a5b6db67b9a2ca3e",
      "title": "People"
    },
    "generator": "Sketchfab-12.67.0",
    "version": "2.0"
  },
  "bufferViews": [
    {
      "buffer": 0,
      "byteLength": 68436,
      "name": "floatBufferViews",
      "target": 34963
    },
    {
      "buffer": 0,
      "byteLength": 51280,
      "byteOffset": 68436,
      "byteStride": 8,
      "name": "floatBufferViews",
      "target": 34962
    },
    {
      "buffer": 0,
      "byteLength": 81288,
      "byteOffset": 119716,
      "byteStride": 12,
      "name": "floatBufferViews",
      "target": 34962
    },
    {
      "buffer": 0,
      "byteLength": 13392,
      "byteOffset": 201004,
      "byteStride": 16,
      "name": "floatBufferViews",
      "target": 34962
    }
  ],
  "buffers": [
    {
      "byteLength": 214396,
      "uri": "scene.bin"
    }
  ],
  "images": [
    {
      "uri": "textures/Wolf3D_Skin_baseColor.jpeg"
    },
    {
      "uri": "textures/Wolf3D_Eye_baseColor.jpeg"
    },
    {
      "uri": "textures/Wolf3D_Hair_normal.png"
    },
    {
      "uri": "textures/shirt_baseColor.png"
    },
    {
      "uri": "textures/shirt_normal.png"
    }
  ],
  "materials": [
    {
      "doubleSided": true,
      "name": "Wolf3D_Skin",
      "pbrMetallicRoughness": {
        "baseColorTexture": {
          "index": 0
        },
        "metallicFactor": 0.0
      }
    },
    {
      "doubleSided": true,
      "name": "Wolf3D_Eye",
      "pbrMetallicRoughness": {
        "baseColorTexture": {
          "index": 1
        },
        "metallicFactor": 0.0,
        "roughnessFactor": 0.9510102051443364
      }
    },
    {
      "doubleSided": true,
      "name": "Wolf3D_Hair",
      "normalTexture": {
        "index": 2
      },
      "pbrMetallicRoughness": {
        "baseColorFactor": [
          0.0328759,
          0.00715504,
          0.000804659,
          1.0
        ],
        "metallicFactor": 0.0,
        "roughnessFactor": 0.9996383382830711
      }
    },
    {
      "doubleSided": true,
      "name": "shirt",
      "normalTexture": {
        "index": 4
      },
      "pbrMetallicRoughness": {
        "baseColorTexture": {
          "index": 3
        },
        "metallicFactor": 0.0,
        "roughnessFactor": 0.9762158576999456
      }
    },
    {
      "doubleSided": true,
      "name": "Wolf3D_Teeth",
      "pbrMetallicRoughness": {
        "baseColorFactor": [
          0.8,
          0.8,
          0.8,
          1.0
        ],
        "metallicFactor": 0.0,
        "roughnessFactor": 0.9510102051443364
      }
    }
  ],
  "meshes": [
    {
      "name": "0",
      "primitives": [
        {
          "attributes": {
            "NORMAL": 1,
            "POSITION": 0,
            "TEXCOORD_0": 2,
            "TEXCOORD_1": 3
          },
          "indices": 4,
          "material": 0,
          "mode": 4
        }
      ]
    },
    {
      "name": "EyeLeft_Wolf3D_Eye_0",
      "primitives": [
        {
          "attributes": {
            "NORMAL": 6,
            "POSITION": 5,
            "TEXCOORD_0": 7,
            "TEXCOORD_1": 8
          },
          "indices": 9,
          "material": 1,
          "mode": 4
        }
      ]
    },
    {
      "name": "EyeRight_Wolf3D_Eye_0",
      "primitives": [
        {
          "attributes": {
            "NORMAL": 11,
            "POSITION": 10,
            "TEXCOORD_0": 12,
            "TEXCOORD_1": 13
          },
          "indices": 14,
          "material": 1,
          "mode": 4
        }
      ]
    },
    {
      "name": "Wolf3D_Hair_Wolf3D_Hair_0",
      "primitives": [
        {
          "attributes": {
            "NORMAL": 16,
            "POSITION": 15,
            "TANGENT": 17,
            "TEXCOORD_0": 18
          },
          "indices": 19,
          "material": 2,
          "mode": 4
        }
      ]
    },
    {
      "name": "Wolf3D_Shirt_shirt_0",
      "primitives": [
        {
          "attributes": {
            "NORMAL": 21,
            "POSITION": 20,
            "TANGENT": 22,
            "TEXCOORD_0": 23,
            "TEXCOORD_1": 24
          },
          "indices": 25,
          "material": 3,
          "mode": 4
        }
      ]
    },
    {
      "name": "Wolf3D_Teeth_Wolf3D_Teeth_0",
      "primitives": [
        {
          "attributes": {
            "NORMAL": 27,
            "POSITION": 26,
            "TEXCOORD_0": 28
          },
          "indices": 29,
          "material": 4,
          "mode": 4
        }
      ]
    }
  ],
  "nodes": [
    {
      "children": [
        1
      ],
      "matrix": [
        1.0,
        0.0,
        0.0,
        0.0,
        0.0,
        2.220446049250313e-16,
        -1.0,
        0.0,
        0.0,
        1.0,
        2.220446049250313e-16,
        0.0,
        0.0,
        0.0,
        0.0,
        1.0
      ],
      "name": "Sketchfab_model"
    },
    {
      "children": [
        2
      ],
      "matrix": [
        1.0,
        0.0,
        0.0,
        0.0,
        0.0,
        0.0,
        1.0,
        0.0,
        0.0,
        -1.0,
        0.0,
        0.0,
        0.0,
        0.0,
        0.0,
        1.0
      ],
      "name": "fc19b9a2653e47fca10593e486a25bc3.fbx"
    },
    {
      "children": [
        3
      ],
      "name": "RootNode"
    },
    {
      "children": [
        4,
        6,
        8,
        10,
        12,
        14
      ],
      "matrix": [
        1.0,
        0.0,
        0.0,
        0.0,
        0.0,
        2.220446049250313e-16,
        1.0,
        0.0,
        0.0,
        -1.0,
        2.220446049250313e-16,
        0.0,
        0.0,
        -59.76634216308594,
        -16.0669002532959,
        1.0
      ],
      "name": "group1"
    },
    {
      "children": [
        5
      ],
      "matrix": [
        100.0,
        0.0,
        0.0,
        0.0,
        0.0,
        -1.629206793918314e-05,
        -99.99999999999868,
        0.0,
        0.0,
        99.99999999999868,
        -1.629206793918314e-05,
        0.0,
        0.0,
        0.0,
        0.0,
        1.0
      ],
      "name": "Wolf3D_Head"
    },
    {
      "mesh": 0,
      "name": "0"
    },
    {
      "children": [
        7
      ],
      "matrix": [
        100.0,
        0.0,
        0.0,
        0.0,
        0.0,
        -1.629206793918314e-05,
        -99.99999999999868,
        0.0,
        0.0,
        99.99999999999868,
        -1.629206793918314e-05,
        0.0,
        0.0,
        0.0,
        0.0,
        1.0
      ],
      "name": "EyeLeft"
    },
    {
      "mesh": 1,
      "name": "EyeLeft_Wolf3D_Eye_0"
    },
    {
      "children": [
        9
      ],
      "matrix": [
        100.0,
        0.0,
        0.0,
        0.0,
        0.0,
        -1.629206793918314e-05,
        -99.99999999999868,
        0.0,
        0.0,
        99.99999999999868,
        -1.629206793918314e-05,
        0.0,
        0.0,
        0.0,
        0.0,
        1.0
      ],
      "name": "EyeRight"
    },
    {
      "mesh": 2,
      "name": "EyeRight_Wolf3D_Eye_0"
    },
    {
      "children": [
        11
      ],
      "matrix": [
        100.0,
        0.0,
        0.0,
        0.0,
        0.0,
        -1.629206793918314e-05,
        -99.99999999999868,
        0.0,
        0.0,
        99.99999999999868,
        -1.629206793918314e-05,
        0.0,
        0.0,
        0.0,
        0.0,
        1.0
      ],
      "name": "Wolf3D_Hair"
    },
    {
      "mesh": 3,
      "name": "Wolf3D_Hair_Wolf3D_Hair_0"
    },
    {
      "children": [
        13
      ],
      "matrix": [
        100.0,
        0.0,
        0.0,
        0.0,
        0.0,
        -1.629206793918314e-05,
        -99.99999999999868,
        0.0,
        0.0,
        99.99999999999868,
        -1.629206793918314e-05,
        0.0,
        0.0,
        0.0,
        0.0,
        1.0
      ],
      "name": "Wolf3D_Shirt"
    },
    {
      "mesh": 4,
      "name": "Wolf3D_Shirt_shirt_0"
    },
    {
      "children": [
        15
      ],
      "matrix": [
        100.0,
        0.0,
        0.0,
        0.0,
        0.0,
        -1.629206793918314e-05,
        -99.99999999999868,
        0.0,
        0.0,
        99.99999999999868,
        -1.629206793918314e-05,
        0.0,
        0.0,
        0.0,
        0.0,
        1.0
      ],
      "name": "Wolf3D_Teeth"
    },
    {
      "mesh": 5,
      "name": "Wolf3D_Teeth_Wolf3D_Teeth_0"
    }
  ],
  "samplers": [
    {
      "magFilter": 9729,
      "minFilter": 9987,
      "wrapS": 10497,
      "wrapT": 10497
    }
  ],
  "scene": 0,
  "scenes": [
    {
      "name": "Sketchfab_Scene",
      "nodes": [
        0
      ]
    }
  ],
  "textures": [
    {
      "sampler": 0,
      "source": 0
    },
    {
      "sampler": 0,
      "source": 1
    },
    {
      "sampler": 0,
      "source": 2
    },
    {
      "sampler": 0,
      "source": 3
    },
    {
      "sampler": 0,
      "source": 4
    }
  ]
}
