{
  "accessors": [
    {
      "bufferView": 2,
      "componentType": 5126,
      "count": 65532,
      "max": [
        1.100000023841858,
        1.100000023841858,
        1.100000023841858
      ],
      "min": [
        -0.8519759774208069,
        -1.100000023841858,
        -1.100000023841858
      ],
      "type": "VEC3"
    },
    {
      "bufferView": 2,
      "byteOffset": 786384,
      "componentType": 5126,
      "count": 65532,
      "max": [
        1.0,
        1.0,
        0.999992311000824
      ],
      "min": [
        -0.7745068669319153,
        -0.9999608397483826,
        -0.9999921917915344
      ],
      "type": "VEC3"
    },
    {
      "bufferView": 1,
      "componentType": 5126,
      "count": 65532,
      "max": [
        1.0,
        1.0
      ],
      "min": [
        0.0,
        0.0
      ],
      "type": "VEC2"
    },
    {
      "bufferView": 0,
      "componentType": 5125,
      "count": 389370,
      "type": "SCALAR"
    },
    {
      "bufferView": 2,
      "byteOffset": 1572768,
      "componentType": 5126,
      "count": 65482,
      "max": [
        0.8415200114250183,
        1.0999579429626465,
        1.100000023841858
      ],
      "min": [
        -1.100000023841858,
        -1.100000023841858,
        -1.100000023841858
      ],
      "type": "VEC3"
    },
    {
      "bufferView": 2,
      "byteOffset": 2358552,
      "componentType": 5126,
      "count": 65482,
      "max": [
        0.7650353312492371,
        0.9999619126319885,
        0.999992311000824
      ],
      "min": [
        -1.0,
        -0.9999608397483826,
        -0.9999921917915344
      ],
      "type": "VEC3"
    },
    {
      "bufferView": 1,
      "byteOffset": 524256,
      "componentType": 5126,
      "count": 65482,
      "max": [
        1.0,
        1.0
      ],
      "min": [
        0.0027779999654740095,
        0.0
      ],
      "type": "VEC2"
    },
    {
      "bufferView": 0,
      "byteOffset": 1557480,
      "componentType": 5125,
      "count": 386070,
      "type": "SCALAR"
    },
    {
      "bufferView": 2,
      "byteOffset": 3144336,
      "componentType": 5126,
      "count": 65532,
      "max": [
        1.03574800491333,
        1.0032260417938232,
        1.0212769508361816
      ],
      "min": [
        -0.9166669845581055,
        -1.0027450323104858,
        -1.0104739665985107
      ],
      "type": "VEC3"
    },
    {
      "bufferView": 2,
      "byteOffset": 3930720,
      "componentType": 5126,
      "count": 65532,
      "max": [
        0.9999979138374329,
        1.0,
        0.9999923706054688
      ],
      "min": [
        -0.9973968863487244,
        -0.999960720539093,
        -0.9998735189437866
      ],
      "type": "VEC3"
    },
    {
      "bufferView": 3,
      "componentType": 5126,
      "count": 65532,
      "max": [
        0.9999787211418152,
        1.0,
        0.9111931324005127,
        1.0
      ],
      "min": [
        -1.0,
        -1.0,
        -0.9395880699157715,
        1.0
      ],
      "type": "VEC4"
    },
    {
      "bufferView": 1,
      "byteOffset": 1048112,
      "componentType": 5126,
      "count": 65532,
      "max": [
        1.0,
        1.0
      ],
      "min": [
        0.0,
        0.022221999242901802
      ],
      "type": "VEC2"
    },
    {
      "bufferView": 0,
      "byteOffset": 3101760,
      "componentType": 5125,
      "count": 377298,
      "type": "SCALAR"
    },
    {
      "bufferView": 2,
      "byteOffset": 4717104,
      "componentType": 5126,
      "count": 65533,
      "max": [
        1.0302729606628418,
        0.9881529808044434,
        1.0027450323104858
      ],
      "min": [
        -1.0157550573349,
        -1.0027450323104858,
        -1.055601954460144
      ],
      "type": "VEC3"
    },
    {
      "bufferView": 2,
      "byteOffset": 5503500,
      "componentType": 5126,
      "count": 65533,
      "max": [
        0.9983497262001038,
        0.99904465675354,
        0.9999923706054688
      ],
      "min": [
        -1.0,
        -0.999960720539093,
        -0.9999983310699463
      ],
      "type": "VEC3"
    },
    {
      "bufferView": 3,
      "byteOffset": 1048512,
      "componentType": 5126,
      "count": 65533,
      "max": [
        0.9999786019325256,
        1.0,
        0.9893983006477356,
        1.0
      ],
      "min": [
        -1.0,
        -1.0,
        -0.9849843382835388,
        1.0
      ],
      "type": "VEC4"
    },
    {
      "bufferView": 1,
      "byteOffset": 1572368,
      "componentType": 5126,
      "count": 65533,
      "max": [
        1.0,
        1.0
      ],
      "min": [
        0.0,
        0.0027779999654740095
      ],
      "type": "VEC2"
    },
    {
      "bufferView": 0,
      "byteOffset": 4610952,
      "componentType": 5125,
      "count": 376515,
      "type": "SCALAR"
    },
    {
      "bufferView": 2,
      "byteOffset": 6289896,
      "componentType": 5126,
      "count": 7564,
      "max": [
        1.03574800491333,
        0.898406982421875,
        1.0159389972686768
      ],
      "min": [
        -1.0157550573349,
        -0.886135995388031,
        -1.0510120391845703
      ],
      "type": "VEC3"
    },
    {
      "bufferView": 2,
      "byteOffset": 6380664,
      "componentType": 5126,
      "count": 7564,
      "max": [
        0.9999979138374329,
        0.9994493126869202,
        0.9999316930770874
      ],
      "min": [
        -0.999814510345459,
        -0.9988813400268555,
        -0.9999222159385681
      ],
      "type": "VEC3"
    },
    {
      "bufferView": 3,
      "byteOffset": 2097040,
      "componentType": 5126,
      "count": 7564,
      "max": [
        0.999921977519989,
        1.0,
        0.9928877949714661,
        1.0
      ],
      "min": [
        -1.0,
        -1.0,
        -0.990669846534729,
        1.0
      ],
      "type": "VEC4"
    },
    {
      "bufferView": 1,
      "byteOffset": 2096632,
      "componentType": 5126,
      "count": 7564,
      "max": [
        1.0,
        0.9666669964790344
      ],
      "min": [
        0.0,
        0.0
      ],
      "type": "VEC2"
    },
    {
      "bufferView": 0,
      "byteOffset": 6117012,
      "componentType": 5125,
      "count": 21627,
      "type": "SCALAR"
    }
  ],
  "asset": {
    "extras": {
      "author": "CHRIS .capycoil (https://sketchfab.com/capycoil)",
      "license": "CC-BY-SA-4.0 (http://creativecommons.org/licenses/by-sa/4.0/)",
      "source": "https://sketchfab.com/3d-models/earth-with-mountains-and-atmosphere-97ecc0ebec5d41088811e993bc764a81",
      "title": "Earth with Mountains and Atmosphere"
    },
    "generator": "Sketchfab-12.67.0",
    "version": "2.0"
  },
  "bufferViews": [
    {
      "buffer": 0,
      "byteLength": 6203520,
      "name": "floatBufferViews",
      "target": 34963
    },
    {
      "buffer": 0,
      "byteLength": 2157144,
      "byteOffset": 6203520,
      "byteStride": 8,
      "name": "floatBufferViews",
      "target": 34962
    },
    {
      "buffer": 0,
      "byteLength": 6471432,
      "byteOffset": 8360664,
      "byteStride": 12,
      "name": "floatBufferViews",
      "target": 34962
    },
    {
      "buffer": 0,
      "byteLength": 2218064,
      "byteOffset": 14832096,
      "byteStride": 16,
      "name": "floatBufferViews",
      "target": 34962
    }
  ],
  "buffers": [
    {
      "byteLength": 17050160,
      "uri": "scene.bin"
    }
  ],
  "images": [
    {
      "uri": "textures/clouds_baseColor.png"
    },
    {
      "uri": "textures/sphere_baseColor.jpeg"
    },
    {
      "uri": "textures/sphere_normal.png"
    }
  ],
  "materials": [
    {
      "alphaMode": "BLEND",
      "doubleSided": true,
      "name": "clouds",
      "pbrMetallicRoughness": {
        "baseColorFactor": [
          1.0,
          1.0,
          1.0,
          0.25
        ],
        "baseColorTexture": {
          "index": 0
        },
        "metallicFactor": 0.0
      }
    },
    {
      "doubleSided": true,
      "name": "sphere",
      "normalTexture": {
        "index": 2
      },
      "pbrMetallicRoughness": {
        "baseColorTexture": {
          "index": 1
        },
        "roughnessFactor": 0.766577743902439
      }
    }
  ],
  "meshes": [
    {
      "name": "Object_0",
      "primitives": [
        {
          "attributes": {
            "NORMAL": 1,
            "POSITION": 0,
            "TEXCOORD_0": 2
          },
          "indices": 3,
          "material": 0,
          "mode": 4
        }
      ]
    },
    {
      "name": "Object_1",
      "primitives": [
        {
          "attributes": {
            "NORMAL": 5,
            "POSITION": 4,
            "TEXCOORD_0": 6
          },
          "indices": 7,
          "material": 0,
          "mode": 4
        }
      ]
    },
    {
      "name": "Object_2",
      "primitives": [
        {
          "attributes": {
            "NORMAL": 9,
            "POSITION": 8,
            "TANGENT": 10,
            "TEXCOORD_0": 11
          },
          "indices": 12,
          "material": 1,
          "mode": 4
        }
      ]
    },
    {
      "name": "Object_3",
      "primitives": [
        {
          "attributes": {
            "NORMAL": 14,
            "POSITION": 13,
            "TANGENT": 15,
            "TEXCOORD_0": 16
          },
          "indices": 17,
          "material": 1,
          "mode": 4
        }
      ]
    },
    {
      "name": "Object_4",
      "primitives": [
        {
          "attributes": {
            "NORMAL": 19,
            "POSITION": 18,
            "TANGENT": 20,
            "TEXCOORD_0": 21
          },
          "indices": 22,
          "material": 1,
          "mode": 4
        }
      ]
    }
  ],
  "nodes": [
    {
      "children": [
        1
      ],
      "matrix": [
        1.0,
        0.0,
        0.0,
        0.0,
        0.0,
        2.220446049250313e-16,
        -1.0,
        0.0,
        0.0,
        1.0,
        2.220446049250313e-16,
        0.0,
        0.0,
        0.0,
        0.0,
        1.0
      ],
      "name": "Sketchfab_model"
    },
    {
      "children": [
        2,
        3,
        4,
        5,
        6
      ],
      "name": "displacement_sphere_and_clouds_1r1.obj.cleaner.materialmerger.gles"
    },
    {
      "mesh": 0,
      "name": "Object_2"
    },
    {
      "mesh": 1,
      "name": "Object_3"
    },
    {
      "mesh": 2,
      "name": "Object_4"
    },
    {
      "mesh": 3,
      "name": "Object_5"
    },
    {
      "mesh": 4,
      "name": "Object_6"
    }
  ],
  "samplers": [
    {
      "magFilter": 9729,
      "minFilter": 9987,
      "wrapS": 10497,
      "wrapT": 10497
    }
  ],
  "scene": 0,
  "scenes": [
    {
      "name": "Sketchfab_Scene",
      "nodes": [
        0
      ]
    }
  ],
  "textures": [
    {
      "sampler": 0,
      "source": 0
    },
    {
      "sampler": 0,
      "source": 1
    },
    {
      "sampler": 0,
      "source": 2
    }
  ]
}
