<svg xmlns="http://www.w3.org/2000/svg" version="1.1" xmlns:xlink="http://www.w3.org/1999/xlink" xmlns:svgjs="http://svgjs.dev/svgjs" width="1000" height="1125" viewBox="0 0 1000 1125"><g transform="matrix(1,0,0,1,0,0)"><svg viewBox="0 0 320 360" data-background-color="#0a1627" preserveAspectRatio="xMidYMid meet" height="1125" width="1000" xmlns="http://www.w3.org/2000/svg" xmlns:xlink="http://www.w3.org/1999/xlink"><g id="tight-bounds" transform="matrix(1,0,0,1,0,0)"><svg viewBox="0 0 320 360" height="360" width="320"><g><svg></svg></g><g><svg viewBox="0 0 320 360" height="360" width="320"><g><path xmlns="http://www.w3.org/2000/svg" d="M320 187.111c0-45.764-20.238-86.866-52.203-114.908-28.043-31.964-69.145-52.203-114.908-52.203-84.302 0-152.889 68.587-152.889 152.889 0 45.753 20.231 86.848 52.185 114.891 28.043 31.975 69.152 52.22 114.926 52.22 0.299 0 0.59-0.021 0.889-0.021 0.299 0 0.59 0.021 0.889 0.021 83.456 0 151.111-67.655 151.111-151.111 0-0.299-0.021-0.59-0.021-0.889 0-0.299 0.021-0.59 0.021-0.889zM59.833 263.097c-15.093-21.255-24.071-47.143-24.256-75.097 0.48-72.928 59.492-131.943 132.423-132.423 27.954 0.185 53.845 9.163 75.097 24.256 24.366 23.627 39.57 56.64 39.57 93.056 0 71.559-58.219 129.778-129.778 129.778-36.416 0-69.429-15.204-93.056-39.57zM3.556 172.889c0-82.343 66.99-149.333 149.333-149.333 35.051 0 67.292 12.167 92.8 32.462-22.98-13.824-49.863-21.796-78.578-21.796-84.302 0-152.889 68.587-152.889 152.889 0 28.708 7.968 55.584 21.785 78.56-20.288-25.5-32.452-57.739-32.451-92.782zM167.111 318.667c-35.84 0-68.363-14.418-92.107-37.743 21.952 15.89 48.864 25.298 77.885 25.298 73.522 0 133.333-59.812 133.333-133.333 0-29.02-9.408-55.932-25.298-77.885 23.324 23.744 37.742 56.267 37.743 92.107 0 72.54-59.015 131.556-131.556 131.556z" fill="#fe0039" fill-rule="nonzero" stroke="none" stroke-width="1" stroke-linecap="butt" stroke-linejoin="miter" stroke-miterlimit="10" stroke-dasharray="" stroke-dashoffset="0" font-family="none" font-weight="none" font-size="none" text-anchor="none" style="mix-blend-mode: normal" data-fill-palette-color="tertiary"></path></g><g transform="matrix(1,0,0,1,64.00000000000001,146.32426989583394)"><svg viewBox="0 0 191.99999999999997 67.35146020833213" height="67.35146020833213" width="191.99999999999997"><g><svg viewBox="0 0 338.254759875 118.656" height="67.35146020833213" width="191.99999999999997"><g transform="matrix(1,0,0,1,0,0.874875000000003)"><svg viewBox="0 0 192 116.90625" height="116.90625" width="192"><g><svg viewBox="0 0 192 116.90625" height="116.90625" width="192"><g><svg viewBox="0 0 192 116.90625" height="116.90625" width="192"><g transform="matrix(1,0,0,1,0,0)"><svg width="192" viewBox="4.199999809265137 -30.3700008392334 50 30.440000534057617" height="116.90625" data-palette-color="#fe0039"><path d="M5.96 0.07Q4.2 0.07 4.2-0.88L4.2-0.88 4.2-29.08Q4.2-29.76 4.52-30.07 4.83-30.37 5.52-30.37L5.52-30.37 12.82-30.37Q18.02-30.37 20.64-28.54 23.27-26.71 23.27-22.71L23.27-22.71Q23.27-20 21.96-18.15 20.65-16.31 18.29-15.38L18.29-15.38 18.29-15.21Q19.56-14.77 20.37-13.51 21.19-12.26 22.19-9.79L22.19-9.79 25.59-1.22Q25.71-0.78 25.71-0.61L25.71-0.61Q25.71 0.07 23.88 0.07L23.88 0.07 23.44 0.07Q22.78 0.07 22.3-0.11 21.83-0.29 21.7-0.61L21.7-0.61 18.41-9.13Q17.77-10.79 16.92-11.72 16.06-12.65 14.89-13.01 13.72-13.38 11.94-13.38L11.94-13.38 8.03-13.38 8.03-0.88Q8.03 0.07 6.3 0.07L6.3 0.07 5.96 0.07ZM8.03-16.67L13.75-16.67Q15.28-16.67 16.56-17.41 17.85-18.14 18.59-19.37 19.34-20.61 19.34-22L19.34-22Q19.34-24.56 17.77-25.82 16.21-27.08 13.45-27.08L13.45-27.08 8.03-27.08 8.03-16.67ZM32 0Q31.32 0 31-0.32 30.69-0.63 30.69-1.29L30.69-1.29 30.69-29.08Q30.69-29.76 31-30.07 31.32-30.37 32-30.37L32-30.37 40.77-30.37Q46.87-30.37 50.53-26.76 54.2-23.14 54.2-15.21L54.2-15.21Q54.2-7.23 50.53-3.61 46.87 0 40.77 0L40.77 0 32 0ZM34.52-3.3L40.48-3.3Q44.87-3.3 47.56-6.16 50.24-9.03 50.24-15.21L50.24-15.21Q50.24-19.36 48.97-22.01 47.7-24.66 45.51-25.87 43.31-27.08 40.48-27.08L40.48-27.08 34.52-27.08 34.52-3.3Z" opacity="1" transform="matrix(1,0,0,1,0,0)" fill="#fe0039" class="undefined-text-0" data-fill-palette-color="primary" id="text-0"></path></svg></g></svg></g></svg></g></svg></g><g transform="matrix(1,0,0,1,219.598759875,0)"><svg viewBox="0 0 118.656 118.656" height="118.656" width="118.656"><g data-palette-color="#c1c1c1"><rect width="32.43264" height="118.656" fill="#c1c1c1" stroke="transparent" data-fill-palette-color="accent" x="0" fill-opacity="1"></rect><rect width="32.43264" height="118.656" fill="#c1c1c1" stroke="transparent" data-fill-palette-color="accent" x="39.552" fill-opacity="0.75"></rect><rect width="32.43264" height="118.656" fill="#c1c1c1" stroke="transparent" data-fill-palette-color="accent" x="79.104" fill-opacity="0.5"></rect></g></svg></g></svg></g></svg></g></svg></g><defs></defs></svg><rect width="320" height="360" fill="none" stroke="none" visibility="hidden"></rect></g></svg></g></svg>